<?xml version="1.0" standalone="no"?>
<!DOCTYPE svg PUBLIC "-//W3C//DTD SVG 20010904//EN"
  "http://www.w3.org/TR/2001/REC-SVG-20010904/DTD/svg10.dtd">
<svg version="1.0" xmlns="http://www.w3.org/2000/svg"
     width="256.000000pt" height="256.000000pt" viewBox="0 0 256.000000 256.000000"
     preserveAspectRatio="xMidYMid meet">
  <metadata>
    Created by potrace 1.11, written by Peter Selinger 2001-2013
  </metadata>
  <g transform="translate(0.000000,256.000000) scale(0.100000,-0.100000)"
     fill="#000000" stroke="none">
    <path d="M0 1280 l0 -1280 1280 0 1280 0 0 1280 0 1280 -1280 0 -1280 0 0
-1280z m1463 705 c230 -60 339 -236 256 -412 -37 -78 -147 -161 -257 -194 -52
-15 -53 -8 38 -194 78 -157 166 -286 264 -385 l66 -66 -78 -32 c-42 -17 -111
-51 -153 -75 l-75 -43 -18 101 c-35 193 -133 533 -165 567 -3 4 -35 -1 -71
-12 -36 -10 -77 -21 -92 -24 l-28 -6 0 -187 0 -187 83 -85 82 -86 -239 -3
c-153 -1 -243 1 -250 8 -7 7 61 10 212 10 122 0 222 3 222 6 0 4 -29 39 -65
79 l-65 73 0 195 0 195 48 6 c26 4 71 14 100 22 51 14 54 16 47 42 -4 15 -8
28 -10 30 -2 2 -45 -3 -96 -12 -51 -9 -103 -16 -116 -16 l-23 0 0 -224 0 -224
45 -50 c25 -27 45 -53 45 -56 0 -3 -91 -6 -202 -6 l-201 0 61 56 62 56 0 168
0 168 -52 -14 c-63 -16 -76 -17 -62 -5 5 5 32 16 59 24 43 12 50 18 53 42 l4
28 -49 -7 c-26 -3 -60 -9 -75 -12 l-27 -6 16 51 17 51 58 0 58 0 0 245 0 245
-47 24 -47 24 49 25 c193 96 437 129 618 82z m347 -202 c32 -68 33 -178 1
-250 -29 -66 -108 -141 -192 -183 -35 -18 -65 -33 -67 -35 -5 -4 28 -87 63
-157 80 -158 206 -313 330 -404 l64 -47 -102 -34 c-56 -19 -153 -61 -214 -93
-62 -33 -113 -55 -113 -50 0 19 189 116 299 153 40 14 74 27 77 29 2 3 -27 31
-66 63 -125 102 -246 271 -330 462 l-39 88 72 36 c92 47 161 108 195 173 23
44 27 63 27 136 0 70 -4 93 -23 129 -13 23 -19 40 -14 37 5 -3 20 -27 32 -53z"/>
    <path d="M1149 1931 c-14 -5 -35 -14 -47 -20 -22 -12 -22 -14 -22 -276 0 -154
4 -265 9 -265 41 0 41 3 41 250 l0 238 74 7 c115 11 214 -15 267 -72 l34 -36
-44 32 c-57 41 -128 61 -212 61 -107 0 -99 21 -99 -241 0 -178 3 -229 13 -229
30 0 163 43 216 69 69 35 136 105 150 157 51 184 -77 336 -282 333 -40 0 -84
-4 -98 -8z"/>
  </g>
</svg>
